<?xml version="1.0" encoding="UTF-8" standalone="no"?>
<!-- Created with Inkscape (http://www.inkscape.org/) -->

<svg
   width="210mm"
   height="297mm"
   viewBox="0 0 210 297"
   version="1.1"
   id="svg1"
   xml:space="preserve"
   xmlns="http://www.w3.org/2000/svg"
   xmlns:svg="http://www.w3.org/2000/svg"><defs
     id="defs1" /><g
     id="layer1"><path
       style="fill:#000000;stroke-width:0.995465;fill-opacity:1"
       d="m 23.938647,179.62486 c -0.644421,-0.16396 -1.078433,-0.88518 -1.078433,-1.79207 0,-1.04867 0.86831,-2.51134 2.405004,-4.05125 0.612643,-0.61391 1.260318,-1.38265 1.439277,-1.70828 0.309226,-0.56266 0.415217,-0.59856 2.134968,-0.72289 3.191592,-0.23075 4.756901,-1.09255 7.711813,-4.24584 2.47195,-2.63791 3.323596,-2.83793 6.612815,-1.55313 2.766863,1.08077 2.765185,1.07728 1.325425,2.75154 -1.984072,2.30723 -4.421835,3.32766 -7.949673,3.32766 -2.905847,0 -3.967401,0.63754 -5.506756,3.30719 -0.898544,1.55832 -2.720077,3.47364 -3.891251,4.09162 -0.999386,0.52732 -2.427528,0.79281 -3.203189,0.59545 z m -11.622476,-3.2823 c -0.391823,-0.35584 -0.510375,-0.64663 -0.509842,-1.25051 0.0013,-1.52224 1.312994,-3.19572 3.874383,-4.94315 1.578093,-1.07662 2.367742,-1.89536 4.597012,-4.76639 0.616078,-0.79343 1.20615,-1.02367 2.64367,-1.03154 0.883136,-0.005 2.255899,-0.59653 2.870776,-1.23738 0.583747,-0.60841 1.052539,-1.89858 1.43046,-3.93681 0.595193,-3.21003 1.551141,-5.06826 3.407863,-6.62443 0.398222,-0.33376 0.644319,-0.60684 0.546883,-0.60684 -0.257718,0 -1.784157,1.14939 -2.082664,1.56822 -0.200342,0.28109 -0.577258,0.3569 -1.76367,0.35469 -3.488039,-0.007 -7.050629,-1.46827 -9.219968,-3.78306 -1.850708,-1.97479 -2.569055,-3.88476 -2.321154,-6.17155 l 0.12886,-1.18868 0.728704,0.75877 c 0.802572,0.83566 1.620281,1.113 1.017229,0.34498 -0.837852,-1.06703 -1.068741,-3.38531 -0.535625,-5.37802 l 0.310919,-1.16217 0.122399,0.79117 c 0.1207,0.78019 0.465443,1.45549 0.743029,1.45549 0.07824,0 0.195332,-0.32607 0.260202,-0.7246 0.140913,-0.86572 1.293822,-2.43491 2.449298,-3.33368 0.458911,-0.35697 0.866134,-0.64901 0.904941,-0.64901 0.03881,0 -0.0072,0.31228 -0.102132,0.69398 -0.408818,1.64291 -0.02414,3.8112 1.167535,6.58093 0.62917,1.46235 1.111113,2.19698 2.459469,3.74902 3.02319,3.47985 5.883972,4.58478 9.422036,3.63909 1.525107,-0.40764 3.852177,-0.4781 8.220778,-0.24886 5.116732,0.26849 6.956973,-0.11853 9.576947,-2.01418 1.611781,-1.1662 2.579293,-1.67371 3.616352,-1.89701 0.648529,-0.13964 1.064284,-0.40963 1.623825,-1.05453 l 0.752107,-0.86684 -1.008411,0.11912 c -1.513573,0.17875 -2.524918,-0.22393 -3.560766,-1.41779 -1.059606,-1.22124 -1.13988,-1.71776 -0.278799,-1.72447 0.853467,-0.007 2.015716,-0.66946 2.61625,-1.49202 l 0.512333,-0.70176 -0.798488,-0.42931 -0.798488,-0.42932 0.928247,-0.30767 c 0.510536,-0.16923 1.429501,-0.53236 2.042144,-0.80697 0.612643,-0.27461 1.656921,-0.62374 2.320618,-0.77585 0.663696,-0.15211 1.060522,-0.31176 0.881835,-0.35478 -0.47756,-0.11495 -0.399414,-0.38852 0.278474,-0.97485 2.177263,-1.88323 6.286907,-3.0395 8.063664,-2.26875 0.287442,0.12467 0.83037,0.57128 1.206507,0.99243 0.832206,0.9318 0.970745,0.91425 3.800882,-0.4815 2.620072,-1.29216 3.087985,-1.38218 3.491832,-0.67182 0.41206,0.72481 0.56194,2.60693 0.297428,3.73492 -0.363808,1.55144 -1.78217,3.06702 -3.447143,3.68339 -1.032292,0.38216 -1.142079,0.48267 -0.730275,0.66853 0.818331,0.36935 2.238003,0.20655 2.931944,-0.3362 1.120564,-0.87643 1.522656,-0.37875 1.256122,1.55474 -0.274944,1.99451 -1.499075,3.00769 -4.326083,3.58054 -1.780455,0.36078 -2.770067,1.02005 -3.282496,2.18675 -0.60083,1.36797 -0.640333,2.04956 -0.225649,3.89337 0.440429,1.95829 0.472354,2.6473 0.17006,3.67034 -0.185175,0.62667 -2.012201,3.89969 -2.920343,5.23163 -0.164591,0.2414 -0.03433,0.13074 0.289477,-0.24592 0.534047,-0.62122 0.62343,-0.65683 0.962277,-0.38329 0.637601,0.51473 1.906238,0.57216 4.087264,0.18507 3.368333,-0.59782 5.002983,-0.19813 7.29645,1.78405 0.54394,0.47012 1.554541,1.21086 2.24578,1.64611 1.747254,1.1002 1.987572,1.70998 1.134427,2.87855 -0.676719,0.9269 -1.619161,1.34865 -3.040998,1.36086 -1.646857,0.014 -2.417356,-0.32442 -4.334302,-1.90433 -1.890813,-1.55839 -2.699858,-1.81492 -4.163945,-1.32027 -0.81243,0.27448 -0.980764,0.27258 -1.454839,-0.0164 -0.885362,-0.53978 -2.486313,-0.88595 -4.113631,-0.8895 l -1.53538,-0.003 0.41827,-0.90936 c 0.33323,-0.72447 0.418925,-1.26116 0.421485,-2.63966 0.0031,-1.65058 -0.02948,-1.78706 -0.706458,-2.96219 -0.39032,-0.67753 -0.757279,-1.17701 -0.815465,-1.10994 -0.05819,0.067 -0.01824,0.24462 0.08876,0.39455 0.107006,0.14995 0.337945,0.84314 0.513198,1.54041 0.382825,1.52313 0.287297,3.11276 -0.261579,4.35276 -0.571329,1.29072 -0.870184,1.54478 -1.84531,1.56874 -0.477715,0.0117 -1.077368,0.0883 -1.332562,0.17008 -0.556836,0.17852 2.714125,0.79007 6.410818,1.1986 3.021376,0.33389 3.670028,0.68258 6.048281,3.25133 2.861228,3.09043 3.135317,3.44947 3.135317,4.10721 0,1.14266 -1.330881,1.92461 -3.302673,1.94047 -1.501137,0.0121 -2.291716,-0.44747 -4.027682,-2.3412 -1.632157,-1.7805 -2.261335,-2.1691 -3.732256,-2.30518 -1.225931,-0.11342 -1.970523,0.0399 -5.181713,1.06667 -1.123179,0.35915 -2.767196,0.71302 -3.65337,0.78636 -0.886175,0.0734 -1.590202,0.10913 -1.564505,0.0795 0.0257,-0.0296 0.410855,-0.27577 0.855905,-0.54702 0.44505,-0.27125 0.846632,-0.62266 0.892404,-0.78093 0.04902,-0.16949 -0.0012,-0.22759 -0.12223,-0.14139 -0.322349,0.22961 -1.728636,-0.2849 -2.415096,-0.8836 -0.668384,-0.58294 -1.140611,-1.6285 -1.140611,-2.52545 0,-0.35108 -0.07543,-0.50068 -0.205648,-0.40793 -0.281077,0.20021 -0.04555,1.79429 0.337116,2.28163 0.164691,0.20974 0.262825,0.42355 0.218076,0.47512 -0.04475,0.0516 -0.733248,0.18705 -1.529996,0.30106 -2.566913,0.3673 -6.248862,-0.5991 -7.278492,-1.91039 -0.315956,-0.40238 -0.301174,-0.41285 0.586483,-0.41565 l 0.910608,-0.003 -1.57802,-0.66173 c -0.867911,-0.36394 -2.031142,-0.85089 -2.584957,-1.08209 -0.758484,-0.31666 -1.365537,-0.40346 -2.46029,-0.35177 -0.799346,0.0378 -1.451375,0.0205 -1.448955,-0.0384 0.01657,-0.40295 2.118226,-1.63619 3.430986,-2.01329 0.204215,-0.0587 -0.144085,-0.0815 -0.773998,-0.0507 -1.787853,0.0875 -3.481862,1.16748 -6.091735,3.88374 -3.513132,3.65638 -4.44806,4.06575 -8.914468,3.90345 -4.05902,-0.1475 -4.004488,-0.17502 -7.206341,3.63792 -1.7099,2.03625 -3.519504,3.11841 -5.396093,3.22693 -1.134678,0.0656 -1.393372,0.0109 -1.831808,-0.38726 z m 48.442413,-31.256 c 0.287442,-0.12426 0.837418,-0.47555 1.22217,-0.78067 0.820507,-0.65066 0.966422,-0.5911 0.591628,0.24151 -0.218397,0.48518 -0.221749,0.55727 -0.01679,0.36123 0.316111,-0.30237 0.977228,-2.39977 1.12042,-3.55455 0.05837,-0.47073 0.03234,-1.19288 -0.05785,-1.60476 l -0.163979,-0.74889 -0.019,0.68737 c -0.05887,2.12935 -1.620783,4.7144 -3.131821,5.18334 -0.432201,0.13413 -0.78582,0.28831 -0.78582,0.34262 0,0.17658 0.705641,0.10426 1.241048,-0.1272 z m 8.963625,-10.77658 c 0.0122,-0.3978 -0.621273,-0.97971 -1.066531,-0.97971 -0.386471,0 -0.421893,0.0502 -0.226587,0.32148 0.132445,0.18393 0.186319,0.58182 0.125912,0.92994 l -0.105583,0.60843 0.633372,-0.34151 c 0.348354,-0.18782 0.636092,-0.43022 0.639417,-0.53863 z m 6.526812,-1.67867 c -0.18335,-0.20975 -0.204675,-0.18517 -0.103926,0.11977 0.06972,0.21103 0.173525,0.32978 0.230685,0.2639 0.05716,-0.0659 1.17e-4,-0.23853 -0.126759,-0.38367 z m 56.600039,42.21489 c -1.99889,-0.30196 -3.84616,-0.86385 -4.49388,-1.3669 l -0.61148,-0.47491 -0.0477,-13.92545 c -0.0391,-11.41277 -0.003,-13.9683 0.20043,-14.16285 0.36244,-0.34668 3.26886,-0.55049 3.88519,-0.27244 l 0.51053,0.23032 v 5.88942 c 0,3.23919 0.0474,5.88943 0.10522,5.88943 0.0579,0 0.38063,-0.24213 0.71726,-0.53805 2.42718,-2.1337 7.04985,-2.41761 9.74325,-0.5984 1.28072,0.86504 2.38623,2.15302 3.07274,3.57991 0.817,1.6981 1.05102,2.78286 1.06481,4.93566 0.0215,3.34964 -0.78321,5.64316 -2.73947,7.80821 -1.95349,2.16197 -3.96621,2.96361 -7.78669,3.10134 -1.3274,0.0479 -2.95647,0.005 -3.62017,-0.0953 z m 6.36057,-3.83277 c 1.92719,-1.07525 2.91081,-2.91207 3.06277,-5.71952 0.18133,-3.34971 -0.69933,-5.56381 -2.66961,-6.71178 -0.749,-0.4364 -1.17889,-0.52837 -2.48379,-0.53137 -1.41041,-0.003 -1.69641,0.0676 -2.6926,0.66648 -0.61302,0.36857 -1.34402,0.93454 -1.62444,1.25774 l -0.50985,0.58763 v 4.97469 4.9747 l 0.628,0.34346 c 1.08048,0.59093 2.00691,0.76125 3.75962,0.69118 1.27299,-0.051 1.90365,-0.18381 2.5299,-0.53321 z m 15.26759,3.82307 c -1.7289,-0.30399 -4.15117,-1.27216 -4.46184,-1.78335 -0.41206,-0.67803 -0.40879,-27.55269 0.003,-28.02776 0.33437,-0.38538 2.69386,-0.64712 3.62301,-0.40191 l 0.64977,0.17147 0.0494,5.92893 c 0.0271,3.26092 0.0885,5.92894 0.13645,5.92894 0.0479,0 0.48518,-0.28148 0.97172,-0.62549 1.45262,-1.02712 2.79756,-1.53207 4.43547,-1.66529 5.00252,-0.40688 8.66487,2.92153 9.13832,8.30509 0.52995,6.02584 -1.95872,10.37266 -6.79351,11.86583 -1.28489,0.39683 -6.14037,0.58696 -7.75215,0.30354 z m 6.86903,-3.90391 c 1.17214,-0.69147 1.99763,-1.68032 2.54317,-3.04644 0.36,-0.90151 0.42711,-1.42333 0.42654,-3.31651 -5.7e-4,-1.89022 -0.069,-2.4209 -0.43118,-3.34484 -0.8512,-2.17133 -2.37427,-3.18359 -4.76632,-3.16781 -1.64394,0.0109 -2.79019,0.52449 -4.07744,1.82712 l -0.65662,0.66446 v 4.99857 c 0,4.73457 0.0191,5.01033 0.36153,5.22156 1.64084,1.0121 5.02021,1.09601 6.60032,0.16389 z m 25.96998,3.92282 c -5.30283,-0.9797 -8.41715,-5.97134 -7.4399,-11.92469 0.58093,-3.53906 2.13925,-5.95726 4.77328,-7.40718 3.97975,-2.19069 9.39703,-1.41213 11.89346,1.70931 1.24282,1.55396 1.87781,3.38706 1.98403,5.72753 0.14138,3.11524 0.71427,2.89307 -7.4602,2.89307 h -6.75946 l 0.22947,1.12334 c 0.33031,1.61694 0.73865,2.3957 1.69964,3.2414 1.33707,1.17666 2.38776,1.48213 4.69828,1.36595 1.58214,-0.0796 2.30638,-0.23276 3.6647,-0.77524 0.93108,-0.37185 1.85799,-0.67608 2.05978,-0.67608 0.75317,0 1.38383,1.487 0.9902,2.33471 -0.26966,0.58071 -2.00161,1.57587 -3.53614,2.03182 -1.38054,0.41018 -5.37233,0.61929 -6.79714,0.35606 z m 6.69986,-13.12085 c -0.41954,-2.93671 -2.25837,-4.45381 -5.03597,-4.15487 -1.93552,0.20831 -3.33956,1.30809 -4.12331,3.22977 -0.79391,1.9466 -1.06567,1.83447 4.446,1.83447 h 4.8432 z m -96.718937,12.67755 c -0.17127,-0.3194 -0.110241,-29.37905 0.06212,-29.57771 0.262359,-0.30237 3.458017,-0.45456 3.894297,-0.18545 l 0.40639,0.25066 v 8.87217 c 0,5.05524 0.0712,8.87215 0.16558,8.87215 0.16183,0 3.08435,-2.90293 6.42497,-6.38189 l 1.67085,-1.74004 2.18721,-0.004 c 1.85162,-0.004 2.205,0.0491 2.30318,0.34389 0.0721,0.21643 -0.0309,0.47976 -0.27183,0.6954 -0.21329,0.19089 -2.06755,2.08021 -4.12058,4.19849 l -3.73278,3.85143 4.59201,5.16992 c 5.40402,6.0841 5.32521,5.85835 2.03686,5.83441 -1.1362,-0.008 -2.20806,-0.0804 -2.38189,-0.16048 -0.17384,-0.0799 -2.19282,-2.23965 -4.48663,-4.79924 -2.2938,-2.5596 -4.21764,-4.65381 -4.2752,-4.65381 -0.0576,0 -0.12713,2.14235 -0.15461,4.76079 l -0.05,4.7608 -2.073928,0.0603 c -1.321317,0.0384 -2.118244,-0.0223 -2.196051,-0.1674 z m 21.456247,0.0143 c -0.22368,-0.16315 -0.25947,-1.68184 -0.23058,-9.78576 0.0311,-8.7141 0.0628,-9.61714 0.34667,-9.86011 0.38337,-0.32814 3.26678,-0.36319 3.78106,-0.046 0.34682,0.21393 0.35909,0.549 0.35909,9.79975 0,7.16446 -0.0561,9.64295 -0.22278,9.83501 -0.26454,0.3049 -3.62844,0.3525 -4.03346,0.0571 z m 53.68411,0.0263 c -0.18441,-0.138 -0.22335,-3.26791 -0.18565,-14.92489 l 0.0477,-14.75026 1.28121,-0.17773 c 0.70466,-0.0977 1.6654,-0.0972 2.13496,9.6e-4 l 0.85376,0.17897 0.0928,1.18522 c 0.0511,0.65187 0.0511,7.34317 0,14.86954 l -0.0928,13.68433 -1.94932,0.0541 c -1.07212,0.0297 -2.05432,-0.0245 -2.18267,-0.12053 z M 13.569305,165.41586 c -5.5832406,-0.2751 -5.5832406,-0.20552 0,-0.93361 3.403798,-0.44389 3.951656,-0.46998 4.316348,-0.20557 0.798675,0.57903 0.284537,1.40603 -0.823217,1.32417 -0.287508,-0.0212 -1.859417,-0.1045 -3.493131,-0.18499 z m 7.333152,-3.66306 c -5.210189,-0.49772 -5.153212,-0.45203 -1.133467,-0.90889 3.545689,-0.40297 3.60456,-0.40297 3.860731,0 0.230352,0.36236 0.214296,0.4521 -0.140234,0.78367 -0.220204,0.20594 -0.453773,0.36026 -0.519041,0.34294 -0.06527,-0.0173 -0.995864,-0.11531 -2.067989,-0.21772 z m -6.219256,-4.46656 c -1.225286,-0.0811 -2.805627,-0.16052 -3.511868,-0.17647 -2.1992404,-0.0497 -1.167866,-0.31637 2.264489,-0.58552 1.809237,-0.14188 4.850704,-0.38036 6.758816,-0.52996 2.837349,-0.22246 3.522137,-0.22145 3.7594,0.006 0.39834,0.38103 0.364085,1.02028 -0.06899,1.28741 -0.3935,0.24271 -5.52853,0.24218 -9.201851,-9.6e-4 z m 104.821659,-7.20437 c -1.59805,-0.90735 -1.78708,-3.73447 -0.32359,-4.83965 1.27545,-0.96318 3.33938,-0.43373 3.85077,0.9878 0.57685,1.60353 0.13234,3.08961 -1.14949,3.84293 -0.79401,0.46664 -1.56643,0.46954 -2.37769,0.009 z M 88.275334,136.19201 c -2.026339,-2.35559 -2.856991,-2.98468 -4.205087,-3.18471 -0.806682,-0.11969 -0.977194,-0.20062 -0.69676,-0.33065 0.895484,-0.41525 2.216377,-0.21434 3.594117,0.54664 0.745716,0.41189 1.396157,0.74889 1.445424,0.74889 0.04927,0 -0.100916,-0.39064 -0.333739,-0.86808 -0.345665,-0.70885 -0.679873,-1.00737 -1.821961,-1.62741 -0.769255,-0.41764 -1.676523,-1.00036 -2.016151,-1.29494 -0.462996,-0.40157 -0.950748,-0.57275 -1.949319,-0.6841 l -1.331814,-0.14852 0.742598,-0.2549 c 0.902787,-0.30989 2.55929,-0.33262 3.423444,-0.047 0.349939,0.11566 0.664976,0.1772 0.700084,0.13674 0.03511,-0.0404 -0.403475,-0.77065 -0.974628,-1.62263 -0.571153,-0.85199 -1.012056,-1.57929 -0.979784,-1.61623 0.07804,-0.0894 7.730684,-3.35673 11.991176,-5.11977 l 3.392624,-1.40393 1.132622,0.65896 c 1.41357,0.82242 2.6727,2.2683 3.44827,3.95969 0.65133,1.42045 1.1652,3.41399 1.1652,4.52034 v 0.70343 l -7.583082,4.37092 -7.583077,4.37091 z m 4.751923,-1.3572 c 1.327393,-0.73869 4.356204,-2.444 6.73069,-3.78958 4.818993,-2.73083 4.428783,-2.2964 3.905403,-4.34797 -0.70458,-2.76187 -3.747529,-6.5156 -4.852047,-5.98542 -0.710923,0.34124 -8.498224,3.6561 -10.884277,4.63316 -1.273519,0.52149 -2.35186,0.99008 -2.396314,1.04131 -0.04445,0.0513 0.340562,0.65153 0.855589,1.334 1.663942,2.20489 3.301609,5.55283 3.767776,7.70261 0.109225,0.5037 0.257349,0.87963 0.329164,0.83541 0.07182,-0.0442 1.216623,-0.68481 2.544016,-1.42352 z m -2.134968,0.72007 c 0,-0.0849 0.209177,-0.5657 0.464839,-1.0685 0.803231,-1.57967 1.541163,-1.9556 4.533479,-2.30947 1.110049,-0.13127 1.075277,0.0966 -0.07861,0.51517 -0.956192,0.34685 -3.181326,1.61845 -3.898638,2.22797 -0.780864,0.66351 -1.021071,0.81285 -1.021071,0.63483 z m -0.736835,-4.21202 c 0.155418,-0.20476 4.477518,-2.11738 4.562771,-2.01914 0.04204,0.0485 -0.86425,0.50213 -2.013984,1.00815 -2.580428,1.1357 -2.670609,1.17148 -2.548787,1.01099 z m 7.917329,-0.68436 c 0.444654,-0.35897 1.359379,-0.79216 1.359379,-0.64378 0,0.11845 -1.41342,0.9619 -1.611932,0.9619 -0.07784,0 0.03581,-0.14315 0.252553,-0.31812 z m -8.387216,-0.48076 c 0.23999,-0.28433 5.146122,-2.43499 5.25872,-2.30521 0.04699,0.0542 -0.07272,0.16412 -0.266026,0.24438 -0.193302,0.0802 -1.312194,0.57289 -2.486426,1.09476 -2.899483,1.28861 -2.720158,1.21949 -2.506268,0.96607 z m 8.354224,-0.84782 c 1.266815,-0.76008 4.387789,-2.24721 4.483819,-2.13653 0.0429,0.0494 -0.40543,0.30956 -0.99622,0.57812 -0.59079,0.26857 -1.36655,0.66465 -1.723929,0.88021 -0.801545,0.48344 -2.400332,1.25858 -2.568071,1.2451 -0.06812,-0.006 0.293865,-0.26059 0.804401,-0.5669 z m -9.09177,-0.24742 c 0.248906,-0.26478 5.127316,-2.42544 5.224185,-2.31379 0.0821,0.0947 -2.655262,1.40354 -4.388762,2.09856 -0.558811,0.22404 -0.934752,0.3209 -0.835423,0.21523 z m 7.979019,-0.43346 c 0.244233,-0.27358 4.94997,-2.62882 5.04151,-2.52331 0.0745,0.0859 -1.72201,1.04981 -3.927614,2.10738 -0.71412,0.34243 -1.215374,0.52959 -1.113896,0.41593 z m -8.757233,-0.5971 c 0.207804,-0.23949 5.195355,-2.42735 5.288583,-2.3199 0.04737,0.0546 -0.07202,0.16474 -0.265324,0.24477 -0.193302,0.08 -0.978025,0.43036 -1.743829,0.77851 -1.925781,0.8755 -3.430085,1.47027 -3.27943,1.29662 z m 8.106315,-0.47362 c 0.455349,-0.37469 5.207978,-2.65285 5.303828,-2.54237 0.0769,0.0885 -4.201394,2.24856 -5.211003,2.63091 -0.29942,0.11338 -0.31739,0.0962 -0.09282,-0.0885 z m -7.147503,-1.40622 c 2.750107,-1.24492 3.699873,-1.63051 3.527339,-1.43208 -0.213911,0.24602 -4.123654,1.96249 -4.434349,1.94677 -0.113788,-0.006 0.294367,-0.23736 0.90701,-0.51469 z m 5.645402,-0.72414 -0.852327,-1.21966 2.523172,-1.17267 c 1.387745,-0.64496 2.577889,-1.17266 2.644764,-1.17266 0.06688,0 0.468364,0.50196 0.892197,1.11547 l 0.770603,1.11547 -0.70655,0.33948 c -2.739248,1.31617 -3.885858,1.90107 -4.03895,2.06036 -0.270971,0.28193 -0.321778,0.23802 -1.232909,-1.06579 z m -9.077045,11.18933 c -0.775917,-0.48969 -0.797187,-0.52543 -0.312681,-0.52543 0.628788,0 1.155903,0.3005 1.303214,0.74295 0.145424,0.43677 -0.0068,0.40335 -0.990533,-0.21752 z"
       id="path1" /></g></svg>
